<?xml version="1.0" encoding="utf-8"?>
<!-- Generator: Adobe Illustrator 22.0.0, SVG Export Plug-In . SVG Version: 6.00 Build 0)  -->
<svg version="1.1" id="Layer_1" xmlns="http://www.w3.org/2000/svg" xmlns:xlink="http://www.w3.org/1999/xlink" x="0px" y="0px"
	 viewBox="0 0 48 48" style="enable-background:new 0 0 48 48;" xml:space="preserve">
<style type="text/css">
	.st0{fill:#D8D8D8;}
	.st1{filter:url(#Adobe_OpacityMaskFilter);}
	.st2{fill:#FFFFFF;}
	.st3{mask:url(#mask-2_2_);fill:#8E8E8E;}
</style>
<g id="ic_avatar" transform="translate(1141.000000, 18.000000)">
	<g id="Mask">
		<circle id="path-1_1_" class="st0" cx="-1117" cy="6" r="18"/>
	</g>
	<defs>
		<filter id="Adobe_OpacityMaskFilter" filterUnits="userSpaceOnUse" x="-1132.1" y="-6.2" width="30.2" height="30.2">
			<feColorMatrix  type="matrix" values="1 0 0 0 0  0 1 0 0 0  0 0 1 0 0  0 0 0 1 0"/>
		</filter>
	</defs>
	<mask maskUnits="userSpaceOnUse" x="-1132.1" y="-6.2" width="30.2" height="30.2" id="mask-2_2_">
		<g class="st1">
			<circle id="path-1_3_" class="st2" cx="-1117" cy="6" r="18"/>
		</g>
	</mask>
	<path id="Shape" class="st3" d="M-1106.3,13.3c-1.6-1.6-3.6-2.9-5.7-3.6c2.3-1.6,3.8-4.2,3.8-7.2c0-4.8-3.9-8.7-8.7-8.7
		s-8.7,3.9-8.7,8.7c0,3,1.5,5.6,3.8,7.2c-2.1,0.7-4.1,2-5.7,3.6c-2.9,2.9-4.4,6.7-4.4,10.7h2.4c0-7,5.7-12.8,12.8-12.8
		s12.8,5.7,12.8,12.8h2.4C-1101.9,20-1103.5,16.2-1106.3,13.3z M-1117,8.9c-3.5,0-6.4-2.9-6.4-6.4s2.9-6.4,6.4-6.4s6.4,2.9,6.4,6.4
		S-1113.5,8.9-1117,8.9z"/>
</g>
</svg>
