<?xml version="1.0" encoding="utf-8"?>
<!-- Generator: Adobe Illustrator 22.0.0, SVG Export Plug-In . SVG Version: 6.00 Build 0)  -->
<svg version="1.1" id="Layer_1" xmlns="http://www.w3.org/2000/svg" xmlns:xlink="http://www.w3.org/1999/xlink" x="0px" y="0px"
	 viewBox="0 0 48 48" style="enable-background:new 0 0 48 48;" xml:space="preserve">
<style type="text/css">
	.st0{fill:#454545;}
</style>
<g>
	<path class="st0" d="M31.7,28.6h-1.6L29.5,28c2-2.3,3.2-5.4,3.2-8.7C32.8,12,26.8,6,19.4,6S6,12,6,19.4s6,13.4,13.4,13.4
		c3.3,0,6.4-1.2,8.7-3.2l0.6,0.6v1.6L38.9,42l3.1-3.1L31.7,28.6z M19.4,28.6c-5.1,0-9.3-4.1-9.3-9.3s4.1-9.3,9.3-9.3
		s9.3,4.1,9.3,9.3S24.5,28.6,19.4,28.6z"/>
</g>
</svg>
